<!-- filepath: c:\Users\Benjamin\OneDrive\Skrivebord\Profil\Profil-app\public\github-logo.svg -->
<svg role="img" viewBox="0 0 24 24" xmlns="http://www.w3.org/2000/svg">
  <title>GitHub</title>
  <path d="M12 0C5.37 0 0 5.37 0 12c0 5.3 3.438 9.8 8.205 11.385.6.11.82-.26.82-.577v-2.165c-3.338.726-4.042-1.415-4.042-1.415-.546-1.387-1.333-1.757-1.333-1.757-1.09-.745.083-.73.083-.73 1.205.084 1.84 1.237 1.84 1.237 1.07 1.835 2.807 1.305 3.492.997.108-.775.418-1.305.762-1.605-2.665-.305-5.466-1.335-5.466-5.93 0-1.31.467-2.38 1.235-3.22-.135-.305-.54-1.527.105-3.18 0 0 1.005-.322 3.3 1.23.96-.267 1.98-.4 3-.405 1.02.005 2.04.138 3 .405 2.28-1.552 3.285-1.23 3.285-1.23.645 1.653.24 2.875.12 3.18.765.84 1.23 1.91 1.23 3.22 0 4.61-2.805 5.625-5.475 5.92.42.36.81 1.096.81 2.21v3.285c0 .322.21.697.825.577C20.565 21.795 24 17.295 24 12c0-6.63-5.37-12-12-12z"/>
</svg>